<?xml version="1.0" encoding="iso-8859-1"?>
<!-- Uploaded to: SVG Repo, www.svgrepo.com, Generator: SVG Repo Mixer Tools -->
<svg version="1.1" id="Layer_1" xmlns="http://www.w3.org/2000/svg" xmlns:xlink="http://www.w3.org/1999/xlink" 
	 viewBox="0 0 511.998 511.998" xml:space="preserve">
<rect x="82.722" y="353.38" transform="matrix(-0.1776 0.9841 -0.9841 -0.1776 585.5382 368.3937)" style="fill:#4EDAA1;" width="112.233" height="150.96"/>
<path style="fill:#FDF5EA;" d="M235.457,18.864l-0.148-0.078c-17.871-9.45-40.02-2.621-49.47,15.25L70.905,251.398
	c-7.452,14.093-7.928,30.851-1.289,45.345l22.448,66.655l42.041,7.587c21.976-29.687,34.799-47.232,34.743-47.615l-17.314-118.585
	c-3.153-21.593,11.797-41.655,33.39-44.808l0.179-0.026c5.731-0.838,11.35-0.388,16.578,1.112l49.029-92.727
	C260.157,50.461,253.33,28.313,235.457,18.864z"/>
<path style="fill:#E5C9A5;" d="M245.101,303.599l-15.193-110.262c-3.153-21.593-23.213-36.543-44.808-33.39l-0.179,0.026
	c-21.593,3.153-36.543,23.213-33.39,44.808l17.314,118.585c0.057,0.385-12.765,17.928-34.743,47.615l74.062,13.364l24.685-33.126
	C243.027,337.568,247.425,320.466,245.101,303.599z"/>
<path d="M172.912,443.184c-0.958,0-1.916-0.102-2.845-0.29c-0.929-0.189-1.843-0.465-2.714-0.827s-1.713-0.813-2.51-1.335
	c-0.784-0.523-1.526-1.132-2.208-1.8c-0.668-0.668-1.277-1.408-1.8-2.206c-0.521-0.784-0.973-1.64-1.335-2.511
	s-0.637-1.784-0.826-2.714c-0.19-0.942-0.29-1.887-0.29-2.829c0-0.958,0.1-1.903,0.29-2.845c0.189-0.93,0.463-1.845,0.826-2.714
	c0.363-0.872,0.814-1.714,1.335-2.511c0.523-0.784,1.132-1.539,1.8-2.206c0.682-0.668,1.423-1.263,2.208-1.8
	c0.798-0.523,1.64-0.973,2.51-1.335c0.872-0.363,1.785-0.639,2.714-0.827c1.872-0.377,3.803-0.377,5.676,0
	c0.929,0.189,1.829,0.464,2.714,0.827c0.871,0.363,1.713,0.813,2.497,1.335c0.798,0.537,1.539,1.132,2.206,1.8
	c0.684,0.668,1.279,1.421,1.814,2.206c0.523,0.798,0.974,1.64,1.337,2.511s0.637,1.784,0.826,2.714
	c0.189,0.942,0.276,1.887,0.276,2.845c0,0.942-0.089,1.887-0.276,2.829c-0.189,0.93-0.463,1.845-0.826,2.714
	c-0.363,0.872-0.814,1.727-1.337,2.511c-0.536,0.798-1.131,1.539-1.814,2.206c-0.668,0.668-1.408,1.277-2.206,1.8
	c-0.784,0.523-1.626,0.973-2.497,1.335c-0.872,0.363-1.785,0.639-2.714,0.827C174.799,443.081,173.857,443.184,172.912,443.184z"/>
<rect x="317.033" y="353.371" transform="matrix(0.1776 0.9841 -0.9841 0.1776 728.9106 -14.5303)" style="fill:#00B57D;" width="112.233" height="150.96"/>
<path style="fill:#FDF5EA;" d="M326.896,159.949l0.179,0.026c21.593,3.153,36.543,23.213,33.39,44.808L343.15,323.368
	c-0.057,0.385,12.766,17.928,34.743,47.615l42.041-7.587l22.448-66.655c6.639-14.494,6.163-31.25-1.289-45.345L326.158,34.035
	c-9.45-17.871-31.599-24.699-49.47-15.25l-0.148,0.078c-17.873,9.45-24.699,31.599-15.25,49.47l49.029,92.727
	C315.546,159.562,321.165,159.112,326.896,159.949z"/>
<path style="fill:#E5C9A5;" d="M377.891,370.983c-21.978-29.687-34.799-47.23-34.743-47.615l17.314-118.585
	c3.153-21.593-11.797-41.655-33.39-44.808l-0.179-0.026c-21.593-3.153-41.655,11.797-44.808,33.39l-15.193,110.262
	c-2.324,16.865,2.076,33.969,12.248,47.621l24.685,33.126L377.891,370.983z"/>
<path d="M471.688,468.098L451.76,357.653c-0.684-3.789-2.844-7.152-6.006-9.346c-1.44-0.999-3.04-1.704-4.706-2.128l14.862-44.13
	c8.11-18.307,7.384-39.716-1.986-57.436L338.99,27.251c-6.382-12.071-17.085-20.936-30.134-24.958
	c-13.049-4.022-26.884-2.723-38.955,3.661l-0.147,0.077c-5.3,2.803-9.898,6.416-13.737,10.601
	c-3.899-4.24-8.535-7.828-13.778-10.601l-0.147-0.077c-12.074-6.382-25.909-7.683-38.955-3.661
	c-13.049,4.022-23.75,12.887-30.133,24.956L58.074,244.612c-9.37,17.72-10.095,39.129-1.986,57.436l14.862,44.13
	c-1.666,0.424-3.266,1.128-4.706,2.128c-3.163,2.196-5.323,5.558-6.006,9.346L40.31,468.096
	c-1.424,7.889,3.818,15.439,11.707,16.861l148.561,26.807c0.871,0.157,1.737,0.234,2.594,0.234c6.888,0,13.001-4.924,14.267-11.942
	l19.928-110.443c0.951-5.266-1.08-10.373-4.876-13.614l12.003-16.106c5.021-6.738,8.863-14.106,11.506-21.846
	c2.643,7.741,6.485,15.109,11.506,21.846l12.003,16.106c-3.796,3.243-5.828,8.348-4.876,13.614l19.928,110.443
	c1.266,7.018,7.378,11.942,14.267,11.942c0.855,0,1.724-0.077,2.594-0.234l148.559-26.806
	C467.871,483.536,473.114,475.986,471.688,468.098z M314.45,174.983c0.768-0.215,1.54-0.393,2.317-0.534
	c0.303-0.055,0.615-0.083,0.922-0.126c0.496-0.071,0.994-0.141,1.494-0.181c0.373-0.03,0.749-0.038,1.125-0.051
	c0.48-0.017,0.959-0.03,1.441-0.02c0.253,0.006,0.505,0.015,0.759,0.028c0.74,0.041,1.482,0.1,2.224,0.208
	c0.03,0.004,0.062,0.006,0.093,0.01l0.151,0.023c6.607,0.964,12.443,4.445,16.433,9.798c3.989,5.353,5.655,11.942,4.688,18.549
	l-17.31,118.563c-0.874,5.915,1.649,9.465,4.844,13.957c1.026,1.446,2.389,3.336,4.054,5.631c0.867,1.195,1.813,2.492,2.845,3.909
	c0.784,1.074,1.62,2.216,2.501,3.418c0.245,0.334,0.502,0.685,0.755,1.029c0.122,0.165,0.238,0.325,0.361,0.494
	c2.412,3.291,5.146,7.008,8.2,11.154l-42.253,7.625l-19.314-25.919c-7.947-10.663-11.323-23.792-9.509-36.965l15.177-110.147
	C297.922,185.371,305.229,177.578,314.45,174.983z M283.326,31.694l0.148-0.078c5.215-2.756,11.193-3.32,16.832-1.582
	c5.639,1.739,10.262,5.568,13.022,10.786l114.936,217.362c5.307,10.036,5.652,22.191,0.923,32.512
	c-0.21,0.46-0.396,0.933-0.559,1.414l-19.71,58.525l-24.721,4.461c-14.465-19.568-21.637-29.394-25.193-34.327
	c-0.001-0.003-0.004-0.006-0.007-0.009c-0.235-0.327-0.454-0.631-0.659-0.916l16.492-112.96c2.086-14.282-1.515-28.518-10.138-40.09
	c-8.624-11.573-21.237-19.094-35.545-21.182l-0.151-0.023c-0.167-0.025-0.332-0.036-0.499-0.06
	c-3.411-0.467-6.816-0.623-10.201-0.438l-44.17-83.539C268.428,50.78,272.557,37.388,283.326,31.694z M83.737,258.184L198.674,40.82
	c2.756-5.217,7.381-9.045,13.02-10.785c5.641-1.737,11.617-1.176,16.832,1.582l0.148,0.078c0,0,0,0,0.001,0.001
	c5.217,2.756,9.045,7.381,10.785,13.02c1.738,5.639,1.176,11.617-1.584,16.833l-44.169,83.538c-0.343-0.019-0.687-0.017-1.029-0.03
	c-0.511-0.017-1.02-0.041-1.534-0.044c-0.518-0.003-1.035,0.016-1.553,0.029c-0.373,0.009-0.745,0.007-1.118,0.025
	c-0.678,0.03-1.356,0.084-2.034,0.139c-0.222,0.019-0.441,0.026-0.663,0.048c-0.909,0.087-1.816,0.195-2.725,0.328l-0.222,0.03
	c-29.479,4.305-49.961,31.789-45.657,61.268l16.494,112.962c-3.296,4.588-10.428,14.376-25.859,35.254l-24.721-4.461l-19.71-58.525
	c-0.161-0.48-0.348-0.952-0.559-1.414C78.084,280.375,78.428,268.219,83.737,258.184z M201.901,368.466l-42.253-7.625
	c3.054-4.146,5.787-7.863,8.2-11.154c0.123-0.168,0.24-0.328,0.361-0.494c0.253-0.344,0.509-0.695,0.755-1.029
	c0.881-1.202,1.717-2.346,2.501-3.418c1.033-1.417,1.978-2.714,2.845-3.909c1.666-2.296,3.028-4.186,4.056-5.631
	c3.195-4.493,5.716-8.042,4.848-13.935l-17.315-118.585c-1.992-13.64,7.484-26.357,21.078-28.341l0.222-0.03
	c0.237-0.035,0.469-0.039,0.705-0.067c0.624-0.074,1.248-0.148,1.871-0.174c0.386-0.016,0.766,0.006,1.15,0.007
	c0.475,0.001,0.951-0.01,1.424,0.019c0.353,0.022,0.698,0.077,1.048,0.113c0.507,0.054,1.015,0.099,1.518,0.183
	c0.306,0.051,0.605,0.128,0.91,0.19c0.54,0.112,1.08,0.224,1.616,0.372c9.267,2.558,16.627,10.342,18.091,20.362l15.192,110.262
	c1.816,13.174-1.56,26.302-9.508,36.965L201.901,368.466z M191.447,480.619l-119.99-21.651l5.918-32.793l50.329,9.081
	c0.872,0.157,1.737,0.234,2.594,0.234c6.888,0,13.001-4.924,14.267-11.942c1.424-7.889-3.818-15.439-11.707-16.861l-50.329-9.081
	l3.701-20.512l119.99,21.653L191.447,480.619z M255.998,276.347l-11.726-85.104c-2.253-15.428-10.863-28.382-22.77-36.619
	l34.496-65.244l34.507,65.263c-11.919,8.248-20.536,21.226-22.798,36.714L255.998,276.347z M320.551,480.619l-14.774-81.873
	l119.99-21.653l3.701,20.512l-50.329,9.081c-7.891,1.423-13.132,8.973-11.707,16.861c1.266,7.018,7.38,11.942,14.267,11.942
	c0.855,0,1.724-0.077,2.594-0.234l50.329-9.081l5.918,32.793L320.551,480.619z"/>
<path d="M339.086,443.184c-0.943,0-1.888-0.102-2.831-0.29c-0.93-0.189-1.845-0.465-2.714-0.827
	c-0.872-0.363-1.713-0.813-2.511-1.335c-0.784-0.523-1.524-1.132-2.192-1.8s-1.277-1.408-1.814-2.206
	c-0.523-0.798-0.973-1.64-1.335-2.511s-0.639-1.784-0.827-2.714c-0.189-0.942-0.274-1.887-0.274-2.829
	c0-0.958,0.087-1.903,0.274-2.845c0.189-0.93,0.465-1.845,0.827-2.714c0.363-0.872,0.813-1.714,1.335-2.511
	c0.537-0.784,1.147-1.539,1.814-2.206c3.368-3.368,8.377-4.906,13.094-3.963c0.929,0.189,1.843,0.464,2.713,0.827
	c0.872,0.363,1.714,0.813,2.511,1.335c0.784,0.537,1.539,1.132,2.206,1.8c0.669,0.668,1.279,1.421,1.8,2.206
	c0.523,0.798,0.973,1.64,1.335,2.511s0.639,1.784,0.827,2.714c0.189,0.942,0.29,1.887,0.29,2.845c0,0.942-0.102,1.887-0.29,2.829
	c-0.189,0.93-0.464,1.845-0.827,2.714c-0.363,0.872-0.813,1.714-1.335,2.511c-0.521,0.798-1.131,1.539-1.8,2.206
	c-0.668,0.668-1.421,1.277-2.206,1.8c-0.798,0.523-1.64,0.973-2.511,1.335c-0.871,0.363-1.784,0.639-2.713,0.827
	C340.986,443.081,340.042,443.184,339.086,443.184z"/>
</svg>